0
SECTION
2
HEADER
9
$INSUNITS
70
4
0
ENDSEC
0
SECTION
2
TABLES
0
TABLE
2
LTYPE
0
LTYPE
72
65
70
64
2
CONTINUOUS
3
______
73
0
40
0
0
ENDTAB
0
TABLE
2
LAYER
0
ENDTAB
0
ENDSEC
0
SECTION
2
ENTITIES
0
LINE
8
0
10
69.8879906
20
-163.2244468
11
90.7810871
21
-160.6590971
0
LINE
8
0
10
90.7810871
20
-160.6590971
11
90.3962634
21
-157.5249596
0
LINE
8
0
10
60.357808
20
-85.6073377
11
69.8879906
21
-163.2244468
0
LINE
8
0
10
80.9802401
20
-83.0752214
11
60.357808
21
-85.6073377
0
LINE
8
0
10
90.3962634
20
-157.5249596
11
109.7572929
21
-155.4900335
0
LINE
8
0
10
109.7572929
20
-155.4900335
11
109.2012829
21
-150.199952
0
LINE
8
0
10
104.5233213
20
-105.692121
11
103.7834911
21
-98.6531072
0
LINE
8
0
10
103.7834911
20
-98.6531072
11
103.5744343
21
-96.6640634
0
LINE
8
0
10
103.5744343
20
-96.6640634
11
101.583167
21
-77.7184213
0
LINE
8
0
10
101.583167
20
-77.7184213
11
80.6484811
21
-79.9187454
0
LINE
8
0
10
80.6484811
20
-79.9187454
11
80.9802401
21
-83.0752214
0
LINE
8
0
10
109.2012829
20
-150.199952
11
128.6419537
21
-148.8405278
0
LINE
8
0
10
128.6419537
20
-148.8405278
11
128.20066
21
-142.5297333
0
LINE
8
0
10
125.4788486
20
-103.6060173
11
124.6553714
21
-91.8297425
0
LINE
8
0
10
124.6553714
20
-91.8297425
11
124.5158583
21
-89.8346144
0
LINE
8
0
10
103.5171351
20
-91.3029882
11
103.6566482
21
-93.2981163
0
LINE
8
0
10
103.6566482
20
-93.2981163
11
104.5233213
21
-105.692121
0
LINE
8
0
10
124.5158583
20
-89.8346144
11
123.1869976
21
-70.8310193
0
LINE
8
0
10
123.1869976
20
-70.8310193
11
102.1882744
21
-72.2993931
0
LINE
8
0
10
102.1882744
20
-72.2993931
11
103.5171351
21
-91.3029882
0
LINE
8
0
10
128.20066
20
-142.5297333
11
146.562235
21
-141.888533
0
LINE
8
0
10
124.845248
20
-85.4620715
11
125.4788486
21
-103.6060173
0
LINE
8
0
10
124.7754491
20
-83.4632897
11
124.845248
21
-85.4620715
0
LINE
8
0
10
145.2813483
20
-67.5148516
11
145.1477906
21
-63.6902601
0
LINE
8
0
10
145.1477906
20
-63.6902601
11
124.1106136
21
-64.4248945
0
LINE
8
0
10
124.1106136
20
-64.4248945
11
124.7754491
21
-83.4632897
0
LINE
8
0
10
146.628821
20
-145.7032434
11
159.0314864
21
-145.486754
0
LINE
8
0
10
161.7519869
20
-145.4392675
11
166.1428959
21
-145.3626239
0
LINE
8
0
10
146.562235
20
-141.888533
11
146.628821
21
-145.7032434
0
LINE
8
0
10
166.3602342
20
-69.9777631
11
166.3108367
21
-67.1477805
0
LINE
8
0
10
166.3108367
20
-67.1477805
11
145.2813483
21
-67.5148516
0
LINE
8
0
10
171.9721919
20
-148.1777632
11
187.1928959
21
-148.1777632
0
LINE
8
0
10
187.1928959
20
-148.1777632
11
187.1928959
21
-69.9777631
0
LINE
8
0
10
166.1428959
20
-145.3626239
11
166.1428959
21
-146.615808
0
LINE
8
0
10
187.1928959
20
-69.9777631
11
166.3602342
21
-69.9777631
0
LINE
8
0
10
153.7774561
20
-165.0950621
11
173.5421827
21
-170.3910046
0
LINE
8
0
10
176.1247477
20
-163.0247891
11
179.5583357
21
-150.2104643
0
LINE
8
0
10
179.5583357
20
-150.2104643
11
171.9721919
21
-148.1777632
0
LINE
8
0
10
166.1428959
20
-146.615808
11
161.7519869
21
-145.4392675
0
LINE
8
0
10
159.0314864
20
-145.486754
11
153.7774561
21
-165.0950621
0
LINE
8
0
10
173.5421827
20
-170.3910046
11
189.8607585
21
-179.8125387
0
LINE
8
0
10
194.4408741
20
-173.4003277
11
201.0442764
21
-161.9628994
0
LINE
8
0
10
201.0442764
20
-161.9628994
11
182.8144416
21
-151.4378994
0
LINE
8
0
10
182.8144416
20
-151.4378994
11
176.1247477
21
-163.0247891
0
LINE
8
0
10
189.8607585
20
-179.8125387
11
203.8293085
21
-193.7810887
0
LINE
8
0
10
203.8293085
20
-193.7810887
11
218.7139062
21
-178.896491
0
LINE
8
0
10
218.7139062
20
-178.896491
11
203.8293085
21
-164.0118933
0
LINE
8
0
10
203.8293085
20
-164.0118933
11
194.4408741
21
-173.4003277
0
LINE
8
0
10
374.0275299
20
-160.6590971
11
394.9206264
21
-163.2244468
0
LINE
8
0
10
394.9206264
20
-163.2244468
11
404.450809
21
-85.6073377
0
LINE
8
0
10
374.4123536
20
-157.5249596
11
374.0275299
21
-160.6590971
0
LINE
8
0
10
404.450809
20
-85.6073377
11
383.8283769
21
-83.0752214
0
LINE
8
0
10
355.0513241
20
-155.4900335
11
374.4123536
21
-157.5249596
0
LINE
8
0
10
355.6073341
20
-150.199952
11
355.0513241
21
-155.4900335
0
LINE
8
0
10
361.2341827
20
-96.6640634
11
361.0251259
21
-98.6531072
0
LINE
8
0
10
361.0251259
20
-98.6531072
11
360.2852957
21
-105.692121
0
LINE
8
0
10
383.8283769
20
-83.0752214
11
384.1601359
21
-79.9187454
0
LINE
8
0
10
384.1601359
20
-79.9187454
11
363.22545
21
-77.7184213
0
LINE
8
0
10
363.22545
20
-77.7184213
11
361.2341827
21
-96.6640634
0
LINE
8
0
10
336.1666633
20
-148.8405278
11
355.6073341
21
-150.199952
0
LINE
8
0
10
336.607957
20
-142.5297333
11
336.1666633
21
-148.8405278
0
LINE
8
0
10
360.2852957
20
-105.692121
11
361.1519688
21
-93.2981163
0
LINE
8
0
10
361.1519688
20
-93.2981163
11
361.2914819
21
-91.3029882
0
LINE
8
0
10
340.2927587
20
-89.8346144
11
340.1532456
21
-91.8297425
0
LINE
8
0
10
340.1532456
20
-91.8297425
11
339.3297684
21
-103.6060173
0
LINE
8
0
10
361.2914819
20
-91.3029882
11
362.6203426
21
-72.2993931
0
LINE
8
0
10
362.6203426
20
-72.2993931
11
341.6216194
21
-70.8310193
0
LINE
8
0
10
341.6216194
20
-70.8310193
11
340.2927587
21
-89.8346144
0
LINE
8
0
10
318.246382
20
-141.888533
11
336.607957
21
-142.5297333
0
LINE
8
0
10
339.3297684
20
-103.6060173
11
339.963369
21
-85.4620715
0
LINE
8
0
10
339.963369
20
-85.4620715
11
340.0331679
21
-83.4632897
0
LINE
8
0
10
340.0331679
20
-83.4632897
11
340.6980034
21
-64.4248945
0
LINE
8
0
10
340.6980034
20
-64.4248945
11
319.6608264
21
-63.6902601
0
LINE
8
0
10
319.6608264
20
-63.6902601
11
319.5272687
21
-67.5148516
0
LINE
8
0
10
298.6657211
20
-145.3626239
11
303.0566301
21
-145.4392675
0
LINE
8
0
10
305.7771306
20
-145.486754
11
318.179796
21
-145.7032434
0
LINE
8
0
10
318.179796
20
-145.7032434
11
318.246382
21
-141.888533
0
LINE
8
0
10
319.5272687
20
-67.5148516
11
298.4977803
21
-67.1477805
0
LINE
8
0
10
298.4977803
20
-67.1477805
11
298.4483828
21
-69.9777631
0
LINE
8
0
10
277.6157211
20
-148.1777632
11
292.8364251
21
-148.1777632
0
LINE
8
0
10
298.6657211
20
-146.615808
11
298.6657211
21
-145.3626239
0
LINE
8
0
10
277.6157211
20
-148.1777632
11
277.6157211
21
-69.9777631
0
LINE
8
0
10
298.4483828
20
-69.9777631
11
277.6157211
21
-69.9777631
0
LINE
8
0
10
291.2664343
20
-170.3910046
11
311.0311609
21
-165.0950621
0
LINE
8
0
10
311.0311609
20
-165.0950621
11
305.7771306
21
-145.486754
0
LINE
8
0
10
303.0566301
20
-145.4392675
11
298.6657211
21
-146.615808
0
LINE
8
0
10
292.8364251
20
-148.1777632
11
285.2502813
21
-150.2104643
0
LINE
8
0
10
285.2502813
20
-150.2104643
11
288.6838693
21
-163.0247891
0
LINE
8
0
10
274.9478585
20
-179.8125387
11
291.2664343
21
-170.3910046
0
LINE
8
0
10
288.6838693
20
-163.0247891
11
281.9941754
21
-151.4378994
0
LINE
8
0
10
281.9941754
20
-151.4378994
11
263.7643406
21
-161.9628994
0
LINE
8
0
10
263.7643406
20
-161.9628994
11
270.3677429
21
-173.4003277
0
LINE
8
0
10
260.9793085
20
-193.7810887
11
274.9478585
21
-179.8125387
0
LINE
8
0
10
270.3677429
20
-173.4003277
11
260.9793085
21
-164.0118933
0
LINE
8
0
10
260.9793085
20
-164.0118933
11
246.0947108
21
-178.896491
0
LINE
8
0
10
246.0947108
20
-178.896491
11
260.9793085
21
-193.7810887
0
ENDSEC
0
EOF