0
SECTION
2
HEADER
9
$INSUNITS
70
4
0
ENDSEC
0
SECTION
2
TABLES
0
TABLE
2
LTYPE
0
LTYPE
72
65
70
64
2
CONTINUOUS
3
______
73
0
40
0
0
ENDTAB
0
TABLE
2
LAYER
0
ENDTAB
0
ENDSEC
0
SECTION
2
ENTITIES
0
LINE
8
0
10
72.9788933
20
-159.2682718
11
86.8249121
21
-157.5681944
0
LINE
8
0
10
86.8249121
20
-157.5681944
11
85.1248347
21
-143.7221756
0
LINE
8
0
10
85.1248347
20
-143.7221756
11
71.2788159
21
-145.422253
0
LINE
8
0
10
71.2788159
20
-145.422253
11
72.9788933
21
-159.2682718
0
LINE
8
0
10
70.6572824
20
-140.3602676
11
84.5033012
21
-138.6601902
0
LINE
8
0
10
84.5033012
20
-138.6601902
11
82.8032238
21
-124.8141714
0
LINE
8
0
10
82.8032238
20
-124.8141714
11
68.957205
21
-126.5142488
0
LINE
8
0
10
68.957205
20
-126.5142488
11
70.6572824
21
-140.3602676
0
LINE
8
0
10
68.3356714
20
-121.4522634
11
82.1816902
21
-119.752186
0
LINE
8
0
10
82.1816902
20
-119.752186
11
80.4816128
21
-105.9061672
0
LINE
8
0
10
80.4816128
20
-105.9061672
11
66.635594
21
-107.6062446
0
LINE
8
0
10
66.635594
20
-107.6062446
11
68.3356714
21
-121.4522634
0
LINE
8
0
10
66.0140604
20
-102.5442592
11
79.8600792
21
-100.8441818
0
LINE
8
0
10
79.8600792
20
-100.8441818
11
78.1600018
21
-86.998163
0
LINE
8
0
10
78.1600018
20
-86.998163
11
64.313983
21
-88.6982404
0
LINE
8
0
10
64.313983
20
-88.6982404
11
66.0140604
21
-102.5442592
0
LINE
8
0
10
91.9820837
20
-153.7887289
11
105.8556642
21
-152.3305568
0
LINE
8
0
10
105.8556642
20
-152.3305568
11
104.3974921
21
-138.4569763
0
LINE
8
0
10
104.3974921
20
-138.4569763
11
90.5239116
21
-139.9151484
0
LINE
8
0
10
90.5239116
20
-139.9151484
11
91.9820837
21
-153.7887289
0
LINE
8
0
10
89.9908164
20
-134.8430868
11
103.8643969
21
-133.3849147
0
LINE
8
0
10
103.8643969
20
-133.3849147
11
102.4062248
21
-119.5113342
0
LINE
8
0
10
102.4062248
20
-119.5113342
11
88.5326443
21
-120.9695063
0
LINE
8
0
10
88.5326443
20
-120.9695063
11
89.9908164
21
-134.8430868
0
LINE
8
0
10
87.9995492
20
-115.8974447
11
101.8731297
21
-114.4392726
0
LINE
8
0
10
101.8731297
20
-114.4392726
11
100.4149576
21
-100.5656921
0
LINE
8
0
10
100.4149576
20
-100.5656921
11
86.5413771
21
-102.0238642
0
LINE
8
0
10
86.5413771
20
-102.0238642
11
87.9995492
21
-115.8974447
0
LINE
8
0
10
86.0082819
20
-96.9518026
11
99.8818624
21
-95.4936305
0
LINE
8
0
10
99.8818624
20
-95.4936305
11
98.4236903
21
-81.62005
0
LINE
8
0
10
98.4236903
20
-81.62005
11
84.5501098
21
-83.0782221
0
LINE
8
0
10
84.5501098
20
-83.0782221
11
86.0082819
21
-96.9518026
0
LINE
8
0
10
110.9369474
20
-146.5199138
11
124.8529659
21
-145.5468109
0
LINE
8
0
10
124.8529659
20
-145.5468109
11
123.879863
21
-131.6307924
0
LINE
8
0
10
123.879863
20
-131.6307924
11
109.9638445
21
-132.6038953
0
LINE
8
0
10
109.9638445
20
-132.6038953
11
110.9369474
21
-146.5199138
0
LINE
8
0
10
109.6080866
20
-127.5163187
11
123.5241051
21
-126.5432158
0
LINE
8
0
10
123.5241051
20
-126.5432158
11
122.5510022
21
-112.6271973
0
LINE
8
0
10
122.5510022
20
-112.6271973
11
108.6349837
21
-113.6003002
0
LINE
8
0
10
108.6349837
20
-113.6003002
11
109.6080866
21
-127.5163187
0
LINE
8
0
10
108.2792258
20
-108.5127236
11
122.1952443
21
-107.5396207
0
LINE
8
0
10
122.1952443
20
-107.5396207
11
121.2221414
21
-93.6236022
0
LINE
8
0
10
121.2221414
20
-93.6236022
11
107.3061229
21
-94.5967051
0
LINE
8
0
10
107.3061229
20
-94.5967051
11
108.2792258
21
-108.5127236
0
LINE
8
0
10
106.9503651
20
-89.5091285
11
120.8663836
21
-88.5360256
0
LINE
8
0
10
120.8663836
20
-88.5360256
11
119.8932807
21
-74.6200071
0
LINE
8
0
10
119.8932807
20
-74.6200071
11
105.9772622
21
-75.59311
0
LINE
8
0
10
105.9772622
20
-75.59311
11
106.9503651
21
-89.5091285
0
LINE
8
0
10
130.2636986
20
-138.9055265
11
144.2052006
21
-138.4186785
0
LINE
8
0
10
144.2052006
20
-138.4186785
11
143.7183526
21
-124.4771765
0
LINE
8
0
10
143.7183526
20
-124.4771765
11
129.7768506
21
-124.9640245
0
LINE
8
0
10
129.7768506
20
-124.9640245
11
130.2636986
21
-138.9055265
0
LINE
8
0
10
129.5988632
20
-119.8671313
11
143.5403652
21
-119.3802833
0
LINE
8
0
10
143.5403652
20
-119.3802833
11
143.0535172
21
-105.4387813
0
LINE
8
0
10
143.0535172
20
-105.4387813
11
129.1120152
21
-105.9256293
0
LINE
8
0
10
129.1120152
20
-105.9256293
11
129.5988632
21
-119.8671313
0
LINE
8
0
10
128.9340278
20
-100.828736
11
142.8755298
21
-100.341888
0
LINE
8
0
10
142.8755298
20
-100.341888
11
142.3886818
21
-86.400386
0
LINE
8
0
10
142.3886818
20
-86.400386
11
128.4471798
21
-86.887234
0
LINE
8
0
10
128.4471798
20
-86.887234
11
128.9340278
21
-100.828736
0
LINE
8
0
10
128.2691923
20
-81.7903408
11
142.2106943
21
-81.3034928
0
LINE
8
0
10
142.2106943
20
-81.3034928
11
141.7238463
21
-67.3619908
0
LINE
8
0
10
141.7238463
20
-67.3619908
11
127.7823443
21
-67.8488388
0
LINE
8
0
10
127.7823443
20
-67.8488388
11
128.2691923
21
-81.7903408
0
LINE
8
0
10
150.1163243
20
-142.091828
11
164.0641996
21
-141.8483669
0
LINE
8
0
10
164.0641996
20
-141.8483669
11
163.8207385
21
-127.9004916
0
LINE
8
0
10
163.8207385
20
-127.9004916
11
149.8728632
21
-128.1439527
0
LINE
8
0
10
149.8728632
20
-128.1439527
11
150.1163243
21
-142.091828
0
LINE
8
0
10
149.7838559
20
-123.0447295
11
163.7317312
21
-122.8012684
0
LINE
8
0
10
163.7317312
20
-122.8012684
11
163.4882701
21
-108.8533931
0
LINE
8
0
10
163.4882701
20
-108.8533931
11
149.5403948
21
-109.0968542
0
LINE
8
0
10
149.5403948
20
-109.0968542
11
149.7838559
21
-123.0447295
0
LINE
8
0
10
149.4513876
20
-103.9976309
11
163.3992629
21
-103.7541698
0
LINE
8
0
10
163.3992629
20
-103.7541698
11
163.1558018
21
-89.8062945
0
LINE
8
0
10
163.1558018
20
-89.8062945
11
149.2079265
21
-90.0497556
0
LINE
8
0
10
149.2079265
20
-90.0497556
11
149.4513876
21
-103.9976309
0
LINE
8
0
10
149.1189192
20
-84.9505323
11
163.0667945
21
-84.7070712
0
LINE
8
0
10
163.0667945
20
-84.7070712
11
162.8233334
21
-70.7591959
0
LINE
8
0
10
162.8233334
20
-70.7591959
11
148.8754581
21
-71.002657
0
LINE
8
0
10
148.8754581
20
-71.002657
11
149.1189192
21
-84.9505323
0
LINE
8
0
10
169.6928959
20
-144.6277632
11
183.6428959
21
-144.6277632
0
LINE
8
0
10
183.6428959
20
-144.6277632
11
183.6428959
21
-130.6777632
0
LINE
8
0
10
183.6428959
20
-130.6777632
11
169.6928959
21
-130.6777632
0
LINE
8
0
10
169.6928959
20
-130.6777632
11
169.6928959
21
-144.6277632
0
LINE
8
0
10
169.6928959
20
-125.5777631
11
183.6428959
21
-125.5777631
0
LINE
8
0
10
183.6428959
20
-125.5777631
11
183.6428959
21
-111.6277631
0
LINE
8
0
10
183.6428959
20
-111.6277631
11
169.6928959
21
-111.6277631
0
LINE
8
0
10
169.6928959
20
-111.6277631
11
169.6928959
21
-125.5777631
0
LINE
8
0
10
169.6928959
20
-106.5277631
11
183.6428959
21
-106.5277631
0
LINE
8
0
10
183.6428959
20
-106.5277631
11
183.6428959
21
-92.5777631
0
LINE
8
0
10
183.6428959
20
-92.5777631
11
169.6928959
21
-92.5777631
0
LINE
8
0
10
169.6928959
20
-92.5777631
11
169.6928959
21
-106.5277631
0
LINE
8
0
10
169.6928959
20
-87.4777631
11
183.6428959
21
-87.4777631
0
LINE
8
0
10
183.6428959
20
-87.4777631
11
183.6428959
21
-73.5277631
0
LINE
8
0
10
183.6428959
20
-73.5277631
11
169.6928959
21
-73.5277631
0
LINE
8
0
10
169.6928959
20
-73.5277631
11
169.6928959
21
-87.4777631
0
LINE
8
0
10
158.1253004
20
-162.584833
11
171.5999657
21
-166.1953587
0
LINE
8
0
10
171.5999657
20
-166.1953587
11
175.2104914
21
-152.7206934
0
LINE
8
0
10
175.2104914
20
-152.7206934
11
161.7358261
21
-149.1101677
0
LINE
8
0
10
161.7358261
20
-149.1101677
11
158.1253004
21
-162.584833
0
LINE
8
0
10
177.1388318
20
-168.368344
11
189.2198862
21
-175.343344
0
LINE
8
0
10
189.2198862
20
-175.343344
11
196.1948862
21
-163.2622896
0
LINE
8
0
10
196.1948862
20
-163.2622896
11
184.1138318
21
-156.2872896
0
LINE
8
0
10
184.1138318
20
-156.2872896
11
177.1388318
21
-168.368344
0
LINE
8
0
10
193.9651689
20
-178.896491
11
203.8293085
21
-188.7606306
0
LINE
8
0
10
203.8293085
20
-188.7606306
11
213.6934481
21
-178.896491
0
LINE
8
0
10
213.6934481
20
-178.896491
11
203.8293085
21
-169.0323514
0
LINE
8
0
10
203.8293085
20
-169.0323514
11
193.9651689
21
-178.896491
0
LINE
8
0
10
377.9837049
20
-157.5681944
11
391.8297237
21
-159.2682718
0
LINE
8
0
10
391.8297237
20
-159.2682718
11
393.5298011
21
-145.422253
0
LINE
8
0
10
393.5298011
20
-145.422253
11
379.6837823
21
-143.7221756
0
LINE
8
0
10
379.6837823
20
-143.7221756
11
377.9837049
21
-157.5681944
0
LINE
8
0
10
380.3053158
20
-138.6601902
11
394.1513346
21
-140.3602676
0
LINE
8
0
10
394.1513346
20
-140.3602676
11
395.851412
21
-126.5142488
0
LINE
8
0
10
395.851412
20
-126.5142488
11
382.0053932
21
-124.8141714
0
LINE
8
0
10
382.0053932
20
-124.8141714
11
380.3053158
21
-138.6601902
0
LINE
8
0
10
382.6269268
20
-119.752186
11
396.4729456
21
-121.4522634
0
LINE
8
0
10
396.4729456
20
-121.4522634
11
398.173023
21
-107.6062446
0
LINE
8
0
10
398.173023
20
-107.6062446
11
384.3270042
21
-105.9061672
0
LINE
8
0
10
384.3270042
20
-105.9061672
11
382.6269268
21
-119.752186
0
LINE
8
0
10
384.9485378
20
-100.8441818
11
398.7945566
21
-102.5442592
0
LINE
8
0
10
398.7945566
20
-102.5442592
11
400.494634
21
-88.6982404
0
LINE
8
0
10
400.494634
20
-88.6982404
11
386.6486152
21
-86.998163
0
LINE
8
0
10
386.6486152
20
-86.998163
11
384.9485378
21
-100.8441818
0
LINE
8
0
10
358.9529528
20
-152.3305568
11
372.8265333
21
-153.7887289
0
LINE
8
0
10
372.8265333
20
-153.7887289
11
374.2847054
21
-139.9151484
0
LINE
8
0
10
374.2847054
20
-139.9151484
11
360.4111249
21
-138.4569763
0
LINE
8
0
10
360.4111249
20
-138.4569763
11
358.9529528
21
-152.3305568
0
LINE
8
0
10
360.9442201
20
-133.3849147
11
374.8178006
21
-134.8430868
0
LINE
8
0
10
374.8178006
20
-134.8430868
11
376.2759727
21
-120.9695063
0
LINE
8
0
10
376.2759727
20
-120.9695063
11
362.4023922
21
-119.5113342
0
LINE
8
0
10
362.4023922
20
-119.5113342
11
360.9442201
21
-133.3849147
0
LINE
8
0
10
362.9354873
20
-114.4392726
11
376.8090678
21
-115.8974447
0
LINE
8
0
10
376.8090678
20
-115.8974447
11
378.2672399
21
-102.0238642
0
LINE
8
0
10
378.2672399
20
-102.0238642
11
364.3936594
21
-100.5656921
0
LINE
8
0
10
364.3936594
20
-100.5656921
11
362.9354873
21
-114.4392726
0
LINE
8
0
10
364.9267546
20
-95.4936305
11
378.8003351
21
-96.9518026
0
LINE
8
0
10
378.8003351
20
-96.9518026
11
380.2585072
21
-83.0782221
0
LINE
8
0
10
380.2585072
20
-83.0782221
11
366.3849267
21
-81.62005
0
LINE
8
0
10
366.3849267
20
-81.62005
11
364.9267546
21
-95.4936305
0
LINE
8
0
10
339.9556511
20
-145.5468109
11
353.8716696
21
-146.5199138
0
LINE
8
0
10
353.8716696
20
-146.5199138
11
354.8447725
21
-132.6038953
0
LINE
8
0
10
354.8447725
20
-132.6038953
11
340.928754
21
-131.6307924
0
LINE
8
0
10
340.928754
20
-131.6307924
11
339.9556511
21
-145.5468109
0
LINE
8
0
10
341.2845119
20
-126.5432158
11
355.2005304
21
-127.5163187
0
LINE
8
0
10
355.2005304
20
-127.5163187
11
356.1736333
21
-113.6003002
0
LINE
8
0
10
356.1736333
20
-113.6003002
11
342.2576148
21
-112.6271973
0
LINE
8
0
10
342.2576148
20
-112.6271973
11
341.2845119
21
-126.5432158
0
LINE
8
0
10
342.6133727
20
-107.5396207
11
356.5293912
21
-108.5127236
0
LINE
8
0
10
356.5293912
20
-108.5127236
11
357.5024941
21
-94.5967051
0
LINE
8
0
10
357.5024941
20
-94.5967051
11
343.5864756
21
-93.6236022
0
LINE
8
0
10
343.5864756
20
-93.6236022
11
342.6133727
21
-107.5396207
0
LINE
8
0
10
343.9422334
20
-88.5360256
11
357.8582519
21
-89.5091285
0
LINE
8
0
10
357.8582519
20
-89.5091285
11
358.8313548
21
-75.59311
0
LINE
8
0
10
358.8313548
20
-75.59311
11
344.9153363
21
-74.6200071
0
LINE
8
0
10
344.9153363
20
-74.6200071
11
343.9422334
21
-88.5360256
0
LINE
8
0
10
320.6034164
20
-138.4186785
11
334.5449184
21
-138.9055265
0
LINE
8
0
10
334.5449184
20
-138.9055265
11
335.0317664
21
-124.9640245
0
LINE
8
0
10
335.0317664
20
-124.9640245
11
321.0902644
21
-124.4771765
0
LINE
8
0
10
321.0902644
20
-124.4771765
11
320.6034164
21
-138.4186785
0
LINE
8
0
10
321.2682518
20
-119.3802833
11
335.2097538
21
-119.8671313
0
LINE
8
0
10
335.2097538
20
-119.8671313
11
335.6966018
21
-105.9256293
0
LINE
8
0
10
335.6966018
20
-105.9256293
11
321.7550998
21
-105.4387813
0
LINE
8
0
10
321.7550998
20
-105.4387813
11
321.2682518
21
-119.3802833
0
LINE
8
0
10
321.9330872
20
-100.341888
11
335.8745892
21
-100.828736
0
LINE
8
0
10
335.8745892
20
-100.828736
11
336.3614372
21
-86.887234
0
LINE
8
0
10
336.3614372
20
-86.887234
11
322.4199352
21
-86.400386
0
LINE
8
0
10
322.4199352
20
-86.400386
11
321.9330872
21
-100.341888
0
LINE
8
0
10
322.5979227
20
-81.3034928
11
336.5394247
21
-81.7903408
0
LINE
8
0
10
336.5394247
20
-81.7903408
11
337.0262727
21
-67.8488388
0
LINE
8
0
10
337.0262727
20
-67.8488388
11
323.0847707
21
-67.3619908
0
LINE
8
0
10
323.0847707
20
-67.3619908
11
322.5979227
21
-81.3034928
0
LINE
8
0
10
300.7444174
20
-141.8483669
11
314.6922927
21
-142.091828
0
LINE
8
0
10
314.6922927
20
-142.091828
11
314.9357538
21
-128.1439527
0
LINE
8
0
10
314.9357538
20
-128.1439527
11
300.9878785
21
-127.9004916
0
LINE
8
0
10
300.9878785
20
-127.9004916
11
300.7444174
21
-141.8483669
0
LINE
8
0
10
301.0768858
20
-122.8012684
11
315.0247611
21
-123.0447295
0
LINE
8
0
10
315.0247611
20
-123.0447295
11
315.2682222
21
-109.0968542
0
LINE
8
0
10
315.2682222
20
-109.0968542
11
301.3203469
21
-108.8533931
0
LINE
8
0
10
301.3203469
20
-108.8533931
11
301.0768858
21
-122.8012684
0
LINE
8
0
10
301.4093541
20
-103.7541698
11
315.3572294
21
-103.9976309
0
LINE
8
0
10
315.3572294
20
-103.9976309
11
315.6006905
21
-90.0497556
0
LINE
8
0
10
315.6006905
20
-90.0497556
11
301.6528152
21
-89.8062945
0
LINE
8
0
10
301.6528152
20
-89.8062945
11
301.4093541
21
-103.7541698
0
LINE
8
0
10
301.7418225
20
-84.7070712
11
315.6896978
21
-84.9505323
0
LINE
8
0
10
315.6896978
20
-84.9505323
11
315.9331589
21
-71.002657
0
LINE
8
0
10
315.9331589
20
-71.002657
11
301.9852836
21
-70.7591959
0
LINE
8
0
10
301.9852836
20
-70.7591959
11
301.7418225
21
-84.7070712
0
LINE
8
0
10
281.1657211
20
-144.6277632
11
295.1157211
21
-144.6277632
0
LINE
8
0
10
295.1157211
20
-144.6277632
11
295.1157211
21
-130.6777632
0
LINE
8
0
10
295.1157211
20
-130.6777632
11
281.1657211
21
-130.6777632
0
LINE
8
0
10
281.1657211
20
-130.6777632
11
281.1657211
21
-144.6277632
0
LINE
8
0
10
281.1657211
20
-125.5777631
11
295.1157211
21
-125.5777631
0
LINE
8
0
10
295.1157211
20
-125.5777631
11
295.1157211
21
-111.6277631
0
LINE
8
0
10
295.1157211
20
-111.6277631
11
281.1657211
21
-111.6277631
0
LINE
8
0
10
281.1657211
20
-111.6277631
11
281.1657211
21
-125.5777631
0
LINE
8
0
10
281.1657211
20
-106.5277631
11
295.1157211
21
-106.5277631
0
LINE
8
0
10
295.1157211
20
-106.5277631
11
295.1157211
21
-92.5777631
0
LINE
8
0
10
295.1157211
20
-92.5777631
11
281.1657211
21
-92.5777631
0
LINE
8
0
10
281.1657211
20
-92.5777631
11
281.1657211
21
-106.5277631
0
LINE
8
0
10
281.1657211
20
-87.4777631
11
295.1157211
21
-87.4777631
0
LINE
8
0
10
295.1157211
20
-87.4777631
11
295.1157211
21
-73.5277631
0
LINE
8
0
10
295.1157211
20
-73.5277631
11
281.1657211
21
-73.5277631
0
LINE
8
0
10
281.1657211
20
-73.5277631
11
281.1657211
21
-87.4777631
0
LINE
8
0
10
293.2086513
20
-166.1953587
11
306.6833166
21
-162.584833
0
LINE
8
0
10
306.6833166
20
-162.584833
11
303.0727909
21
-149.1101677
0
LINE
8
0
10
303.0727909
20
-149.1101677
11
289.5981256
21
-152.7206934
0
LINE
8
0
10
289.5981256
20
-152.7206934
11
293.2086513
21
-166.1953587
0
LINE
8
0
10
275.5887308
20
-175.343344
11
287.6697852
21
-168.368344
0
LINE
8
0
10
287.6697852
20
-168.368344
11
280.6947852
21
-156.2872896
0
LINE
8
0
10
280.6947852
20
-156.2872896
11
268.6137308
21
-163.2622896
0
LINE
8
0
10
268.6137308
20
-163.2622896
11
275.5887308
21
-175.343344
0
LINE
8
0
10
260.9793085
20
-188.7606306
11
270.8434481
21
-178.896491
0
LINE
8
0
10
270.8434481
20
-178.896491
11
260.9793085
21
-169.0323514
0
LINE
8
0
10
260.9793085
20
-169.0323514
11
251.1151689
21
-178.896491
0
LINE
8
0
10
251.1151689
20
-178.896491
11
260.9793085
21
-188.7606306
0
ENDSEC
0
EOF